<svg xmlns="http://www.w3.org/2000/svg" width="22" height="24" viewBox="0 0 22 24" fill="none">
<g clip-path="url(#clip0_51_5164)">
<path d="M9.82153 10.3997C9.82153 11.3997 10.0179 12.7986 10.2142 13.8H11.7849C11.9812 12.8 12.1776 11.5996 12.1776 10.3997V9.6001H9.82153V10.3997Z" fill="#bc9703"/>
<path d="M11 15C9.82153 15 9.82153 15 9.82153 15.8998C9.82153 16.7996 9.82153 16.8001 11 16.8001C12.1785 16.8001 12.1785 16.8001 12.1785 15.8998C12.1785 14.9995 12.1785 15 11 15Z" fill="#bc9703"/>
<path d="M18.8572 0H3.14141C0.791819 0 0 0.593603 0 2.39887V21.5997C0 23.3937 0.791819 23.9986 3.14141 23.9986H18.8572C21.2262 23.9986 21.9986 23.3923 21.9986 21.5997V2.39887C22 0.593603 21.2202 0 18.8572 0ZM17.1678 18.5997H4.83314C4.62628 18.5998 4.42305 18.5444 4.24388 18.4391C4.06471 18.3338 3.91591 18.1824 3.81244 18C3.70897 17.8176 3.65448 17.6107 3.65443 17.4001C3.65439 17.1894 3.7088 16.9825 3.81219 16.8001L9.97858 5.92239C10.082 5.74003 10.2308 5.58861 10.4099 5.48333C10.5891 5.37805 10.7922 5.32262 10.9991 5.32262C11.2059 5.32262 11.4091 5.37805 11.5882 5.48333C11.7674 5.58861 11.9161 5.74003 12.0196 5.92239L18.1887 16.8001C18.2921 16.9825 18.3465 17.1894 18.3465 17.4001C18.3464 17.6107 18.292 17.8176 18.1885 18C18.085 18.1824 17.9362 18.3338 17.757 18.4391C17.5779 18.5444 17.3746 18.5998 17.1678 18.5997Z" fill="#bc9703"/>
</g>
<defs fill="#bc9703">
<clipPath id="clip0_51_5164" fill="#bc9703">
<rect width="22" height="24" fill="#ffffff"/>
</clipPath>
</defs>
</svg>