<svg xmlns="http://www.w3.org/2000/svg" width="24" height="24" viewBox="0 0 24 24" fill="none">
<path d="M19.1429 2H4.85714C2.71996 2 2 2.51937 2 4.09986V20.9C2 22.4697 2.7198 23 4.85714 23H19.1429C21.2967 23 22 22.4697 22 20.9V4.09986C22 2.51957 21.2913 2 19.1429 2ZM12.0001 6.19993C14.1429 6.19993 14.1429 6.19993 14.1429 7.77503C14.1429 9.35005 14.1429 9.35004 12.0001 9.35004C9.85724 9.35004 9.85724 9.35005 9.85724 7.77503C9.85724 6.19993 9.85724 6.19993 12.0001 6.19993ZM15.5663 18.8L8.42651 18.8C8.42651 18.8 8.42911 18.275 8.42651 17.75C8.42126 16.7 8.41601 16.7 9.84985 16.7C9.85229 16.7 9.85481 16.7 9.85724 16.7V13.0248L12.7156 12.675V12.5H9.85724V12.4999H9.85602C8.42744 12.4999 8.42219 12.4999 8.43268 11.4499C8.43529 11.1875 8.43268 10.3999 8.43268 10.3999H14.143V16.7C15.5688 16.7 15.5612 16.7007 15.5664 17.75C15.5677 18.0125 15.5663 18.8 15.5663 18.8Z" fill="#007fa7"/>
</svg>